<svg xmlns="http://www.w3.org/2000/svg" xmlns:xlink="http://www.w3.org/1999/xlink" width="500" zoomAndPan="magnify" viewBox="0 0 375 374.999991" height="500" preserveAspectRatio="xMidYMid meet" version="1.0"><defs><g/><clipPath id="d8e96f28fa"><path d="M 145.636719 108.472656 L 212.964844 108.472656 L 212.964844 163.335938 L 145.636719 163.335938 Z M 145.636719 108.472656 " clip-rule="nonzero"/></clipPath><clipPath id="342e5bb136"><path d="M 210 156 L 228 156 L 228 168.964844 L 210 168.964844 Z M 210 156 " clip-rule="nonzero"/></clipPath><clipPath id="21524c8c32"><path d="M 179.546875 121 L 228 121 L 228 168.964844 L 179.546875 168.964844 Z M 179.546875 121 " clip-rule="nonzero"/></clipPath></defs><rect x="-37.5" width="450" fill="#ffffff" y="-37.499999" height="449.999989" fill-opacity="1"/><rect x="-37.5" width="450" fill="#ffffff" y="-37.499999" height="449.999989" fill-opacity="1"/><g clip-path="url(#d8e96f28fa)"><path fill="#7ed957" d="M 147.820312 109.953125 L 210.585938 109.953125 C 210.910156 109.949219 211.179688 110.207031 211.183594 110.535156 C 211.183594 110.535156 211.183594 110.542969 211.183594 110.546875 L 211.183594 149.945312 C 211.183594 150.269531 210.925781 150.539062 210.597656 150.539062 C 210.589844 150.539062 210.589844 150.539062 210.585938 150.539062 L 147.820312 150.539062 C 147.496094 150.542969 147.226562 150.28125 147.21875 149.957031 C 147.21875 149.957031 147.21875 149.949219 147.21875 149.945312 L 147.21875 110.546875 C 147.21875 110.222656 147.484375 109.953125 147.808594 109.953125 C 147.8125 109.953125 147.820312 109.953125 147.820312 109.953125 Z M 147.207031 108.480469 C 146.398438 108.492188 145.757812 109.152344 145.757812 109.953125 L 145.757812 153.605469 C 145.757812 154.410156 146.398438 155.066406 147.207031 155.082031 L 174.285156 155.082031 L 174.285156 159.746094 C 174.285156 160.074219 174.023438 160.339844 173.695312 160.339844 C 173.6875 160.339844 173.683594 160.339844 173.675781 160.339844 L 170.421875 160.339844 C 169.003906 160.351562 167.777344 161.328125 167.441406 162.703125 C 167.363281 163.019531 167.558594 163.339844 167.875 163.417969 C 167.921875 163.429688 167.96875 163.433594 168.015625 163.433594 L 190.429688 163.433594 C 190.757812 163.433594 191.015625 163.167969 191.015625 162.839844 C 191.015625 162.792969 191.011719 162.746094 191.003906 162.703125 C 190.667969 161.316406 189.414062 160.335938 187.980469 160.339844 L 184.726562 160.339844 C 184.40625 160.328125 184.148438 160.066406 184.148438 159.746094 L 184.148438 155.082031 L 211.191406 155.082031 C 212.003906 155.089844 212.671875 154.429688 212.683594 153.617188 C 212.683594 153.617188 212.683594 153.609375 212.683594 153.605469 L 212.683594 109.953125 C 212.675781 109.140625 212.015625 108.480469 211.203125 108.480469 C 211.195312 108.480469 211.195312 108.480469 211.191406 108.480469 L 147.207031 108.480469 " fill-opacity="1" fill-rule="nonzero"/></g><path fill="#ffffff" d="M 224.816406 156.035156 L 210.734375 164.164062 L 193.21875 156.550781 C 191.6875 156.140625 190.777344 154.566406 191.1875 153.035156 C 191.597656 151.503906 193.171875 150.59375 194.703125 151.003906 L 199.621094 152.324219 L 199.390625 151.921875 L 190.289062 136.160156 C 189.496094 134.785156 189.964844 133.03125 191.339844 132.238281 C 192.710938 131.445312 194.46875 131.914062 195.261719 133.289062 L 200.0625 141.605469 C 199.269531 140.234375 199.738281 138.476562 201.113281 137.683594 C 202.484375 136.890625 204.242188 137.363281 205.035156 138.734375 L 206.070312 140.53125 C 205.277344 139.160156 205.75 137.402344 207.121094 136.609375 C 208.492188 135.816406 210.25 136.289062 211.042969 137.660156 L 212.078125 139.457031 C 211.285156 138.082031 211.757812 136.328125 213.128906 135.535156 C 214.503906 134.742188 216.257812 135.214844 217.050781 136.585938 L 219.277344 140.441406 L 220.609375 142.75 L 223.886719 148.429688 Z M 224.816406 156.035156 " fill-opacity="1" fill-rule="nonzero"/><g clip-path="url(#342e5bb136)"><path fill="#fcee21" d="M 227.292969 160.296875 L 213.199219 168.433594 L 210.734375 164.164062 L 224.828125 156.027344 Z M 227.292969 160.296875 " fill-opacity="1" fill-rule="nonzero"/></g><g clip-path="url(#21524c8c32)"><path fill="#000000" d="M 189.539062 129.6875 C 189.34375 129.6875 189.152344 129.585938 189.046875 129.402344 L 185.421875 123.128906 C 185.265625 122.855469 185.359375 122.507812 185.632812 122.351562 C 185.902344 122.195312 186.25 122.289062 186.410156 122.558594 L 190.03125 128.835938 C 190.1875 129.105469 190.09375 129.453125 189.824219 129.613281 C 189.734375 129.664062 189.636719 129.6875 189.539062 129.6875 Z M 187.175781 132.769531 C 187.425781 132.769531 187.65625 132.601562 187.722656 132.347656 C 187.804688 132.042969 187.625 131.730469 187.320312 131.652344 L 180.324219 129.777344 C 180.019531 129.691406 179.707031 129.875 179.625 130.179688 C 179.546875 130.480469 179.726562 130.792969 180.027344 130.875 L 187.027344 132.75 C 187.078125 132.761719 187.125 132.769531 187.175781 132.769531 Z M 187.398438 135.558594 L 181.121094 139.179688 C 180.851562 139.339844 180.757812 139.6875 180.914062 139.957031 C 181.019531 140.140625 181.210938 140.242188 181.40625 140.242188 C 181.503906 140.242188 181.601562 140.21875 181.691406 140.167969 L 187.964844 136.542969 C 188.238281 136.386719 188.332031 136.039062 188.175781 135.765625 C 188.015625 135.496094 187.667969 135.402344 187.398438 135.558594 Z M 196.472656 131.546875 C 196.566406 131.546875 196.664062 131.519531 196.753906 131.46875 L 203.03125 127.847656 C 203.300781 127.6875 203.394531 127.339844 203.238281 127.070312 C 203.082031 126.796875 202.730469 126.703125 202.460938 126.859375 L 196.1875 130.484375 C 195.914062 130.640625 195.820312 130.988281 195.976562 131.261719 C 196.082031 131.441406 196.273438 131.546875 196.472656 131.546875 Z M 193.242188 129.160156 C 193.292969 129.175781 193.339844 129.179688 193.390625 129.179688 C 193.640625 129.179688 193.871094 129.011719 193.9375 128.757812 L 195.8125 121.761719 C 195.894531 121.457031 195.714844 121.144531 195.410156 121.0625 C 195.105469 120.980469 194.796875 121.164062 194.714844 121.464844 L 192.839844 128.464844 C 192.757812 128.769531 192.9375 129.078125 193.242188 129.160156 Z M 227.578125 160.789062 L 213.484375 168.925781 C 213.398438 168.976562 213.300781 169.003906 213.199219 169.003906 C 213.152344 169.003906 213.101562 168.996094 213.054688 168.984375 C 212.90625 168.945312 212.785156 168.847656 212.707031 168.71875 L 210.335938 164.609375 L 193.027344 157.085938 C 192.160156 156.84375 191.433594 156.28125 190.984375 155.496094 C 190.523438 154.703125 190.402344 153.773438 190.640625 152.886719 C 191.128906 151.054688 193.019531 149.964844 194.851562 150.457031 L 198.441406 151.417969 L 189.796875 136.445312 C 188.847656 134.800781 189.414062 132.695312 191.054688 131.746094 C 192.695312 130.796875 194.804688 131.363281 195.753906 133.003906 L 199.277344 139.109375 C 199.53125 138.328125 200.0625 137.632812 200.828125 137.191406 C 202.335938 136.320312 204.238281 136.726562 205.273438 138.070312 C 205.53125 137.242188 206.082031 136.554688 206.835938 136.117188 C 207.632812 135.65625 208.558594 135.535156 209.445312 135.773438 C 210.1875 135.972656 210.824219 136.402344 211.28125 137 C 211.53125 136.203125 212.066406 135.492188 212.84375 135.042969 C 214.484375 134.09375 216.59375 134.660156 217.542969 136.300781 L 224.382812 148.144531 C 224.417969 148.210938 224.445312 148.285156 224.453125 148.359375 L 225.359375 155.8125 L 227.785156 160.011719 C 227.945312 160.285156 227.851562 160.632812 227.578125 160.789062 Z M 193.445312 156.027344 L 210.699219 163.527344 L 224.207031 155.730469 L 223.335938 148.613281 L 216.558594 136.871094 C 215.921875 135.773438 214.511719 135.390625 213.414062 136.027344 C 212.316406 136.664062 211.9375 138.074219 212.570312 139.171875 C 212.578125 139.179688 212.574219 139.191406 212.582031 139.199219 L 214.203125 142.007812 C 214.359375 142.28125 214.265625 142.628906 213.992188 142.785156 C 213.902344 142.835938 213.804688 142.863281 213.710938 142.863281 C 213.511719 142.863281 213.320312 142.761719 213.214844 142.578125 L 210.683594 138.1875 C 210.675781 138.179688 210.679688 138.167969 210.671875 138.160156 L 210.550781 137.945312 C 209.914062 136.847656 208.503906 136.46875 207.40625 137.101562 C 206.871094 137.410156 206.492188 137.90625 206.332031 138.5 C 206.175781 139.09375 206.253906 139.710938 206.5625 140.242188 L 206.5625 140.246094 C 206.566406 140.25 206.566406 140.257812 206.566406 140.261719 L 209.234375 144.878906 C 209.390625 145.148438 209.296875 145.496094 209.023438 145.65625 C 208.933594 145.707031 208.835938 145.730469 208.742188 145.730469 C 208.542969 145.730469 208.351562 145.628906 208.246094 145.445312 L 205.125 140.039062 C 205.121094 140.035156 205.125 140.027344 205.121094 140.023438 L 204.539062 139.019531 C 203.90625 137.921875 202.496094 137.542969 201.398438 138.175781 C 200.296875 138.8125 199.921875 140.21875 200.554688 141.320312 L 204.265625 147.746094 C 204.421875 148.019531 204.328125 148.367188 204.054688 148.523438 C 203.964844 148.574219 203.867188 148.597656 203.773438 148.597656 C 203.574219 148.597656 203.382812 148.496094 203.277344 148.316406 L 199.570312 141.890625 L 194.765625 133.574219 C 194.132812 132.472656 192.722656 132.097656 191.625 132.730469 C 190.523438 133.363281 190.148438 134.777344 190.78125 135.875 L 200.113281 152.039062 C 200.226562 152.238281 200.210938 152.488281 200.070312 152.667969 C 199.933594 152.851562 199.695312 152.933594 199.472656 152.871094 L 194.554688 151.554688 C 194.359375 151.5 194.15625 151.476562 193.960938 151.476562 C 192.945312 151.476562 192.011719 152.15625 191.738281 153.179688 C 191.578125 153.773438 191.660156 154.394531 191.96875 154.929688 C 192.273438 155.460938 192.769531 155.839844 193.363281 156 C 193.394531 156.007812 193.417969 156.015625 193.445312 156.027344 Z M 226.515625 160.089844 L 224.621094 156.804688 L 211.511719 164.371094 L 213.410156 167.65625 Z M 226.515625 160.089844 " fill-opacity="1" fill-rule="nonzero"/></g><g fill="#000000" fill-opacity="1"><g transform="translate(128.505274, 207.367442)"><g><path d="M 12.140625 0.3125 C 10.085938 0.3125 8.28125 -0.109375 6.71875 -0.953125 C 5.164062 -1.804688 3.945312 -3.085938 3.0625 -4.796875 C 2.1875 -6.503906 1.75 -8.609375 1.75 -11.109375 C 1.75 -13.609375 2.1875 -15.707031 3.0625 -17.40625 C 3.945312 -19.113281 5.164062 -20.394531 6.71875 -21.25 C 8.28125 -22.101562 10.085938 -22.53125 12.140625 -22.53125 C 14.273438 -22.53125 16.085938 -22.109375 17.578125 -21.265625 C 19.078125 -20.429688 20.144531 -19.160156 20.78125 -17.453125 L 17.578125 -15.5 L 17.1875 -15.515625 C 16.71875 -16.660156 16.070312 -17.484375 15.25 -17.984375 C 14.4375 -18.492188 13.398438 -18.75 12.140625 -18.75 C 10.296875 -18.75 8.859375 -18.132812 7.828125 -16.90625 C 6.796875 -15.6875 6.28125 -13.753906 6.28125 -11.109375 C 6.28125 -8.460938 6.796875 -6.53125 7.828125 -5.3125 C 8.859375 -4.09375 10.296875 -3.484375 12.140625 -3.484375 C 15.023438 -3.484375 16.789062 -4.882812 17.4375 -7.6875 L 17.8125 -7.6875 L 21.046875 -6 C 20.441406 -3.894531 19.40625 -2.316406 17.9375 -1.265625 C 16.46875 -0.210938 14.535156 0.3125 12.140625 0.3125 Z M 12.140625 0.3125 "/></g></g></g><g fill="#000000" fill-opacity="1"><g transform="translate(150.281631, 207.367442)"><g><path d="M 21.3125 0 L 16.6875 0 L 15.015625 -5.125 L 6.515625 -5.125 L 4.84375 0 L 0.328125 0 L 8 -22.203125 L 13.640625 -22.203125 Z M 10.5625 -17.578125 L 7.703125 -8.8125 L 13.8125 -8.8125 L 10.9375 -17.578125 Z M 10.5625 -17.578125 "/></g></g></g><g fill="#000000" fill-opacity="1"><g transform="translate(171.921321, 207.367442)"><g><path d="M 6.90625 0 L 2.890625 0 L 2.890625 -22.203125 L 8.625 -22.203125 L 14.25 -5.875 L 14.5625 -5.875 L 20.15625 -22.203125 L 25.765625 -22.203125 L 25.765625 0 L 21.59375 0 L 21.59375 -14.671875 L 21.21875 -14.734375 L 16.09375 0 L 12.421875 0 L 7.296875 -14.734375 L 6.90625 -14.671875 Z M 6.90625 0 "/></g></g></g><g fill="#000000" fill-opacity="1"><g transform="translate(200.576826, 207.367442)"><g><path d="M 2.890625 0 L 2.890625 -22.203125 L 12.359375 -22.203125 C 13.734375 -22.203125 14.890625 -21.988281 15.828125 -21.5625 C 16.773438 -21.132812 17.492188 -20.519531 17.984375 -19.71875 C 18.472656 -18.925781 18.71875 -17.988281 18.71875 -16.90625 C 18.71875 -15.925781 18.476562 -15.0625 18 -14.3125 C 17.519531 -13.5625 16.835938 -12.957031 15.953125 -12.5 L 15.953125 -12.1875 C 17.347656 -11.820312 18.425781 -11.15625 19.1875 -10.1875 C 19.945312 -9.226562 20.328125 -8.050781 20.328125 -6.65625 C 20.328125 -4.53125 19.6875 -2.890625 18.40625 -1.734375 C 17.125 -0.578125 15.222656 0 12.703125 0 Z M 11.453125 -13.359375 C 13.492188 -13.359375 14.515625 -14.273438 14.515625 -16.109375 C 14.515625 -17.054688 14.257812 -17.757812 13.75 -18.21875 C 13.25 -18.675781 12.484375 -18.90625 11.453125 -18.90625 L 7.28125 -18.90625 L 7.28125 -13.359375 Z M 12.265625 -3.484375 C 14.679688 -3.484375 15.890625 -4.582031 15.890625 -6.78125 C 15.890625 -8.988281 14.679688 -10.09375 12.265625 -10.09375 L 7.28125 -10.09375 L 7.28125 -3.484375 Z M 12.265625 -3.484375 "/></g></g></g><g fill="#000000" fill-opacity="1"><g transform="translate(222.292439, 207.367442)"><g><path d="M 12.109375 0.3125 C 10.066406 0.3125 8.269531 -0.0976562 6.71875 -0.921875 C 5.164062 -1.753906 3.945312 -3.023438 3.0625 -4.734375 C 2.1875 -6.441406 1.75 -8.566406 1.75 -11.109375 C 1.75 -13.648438 2.1875 -15.769531 3.0625 -17.46875 C 3.945312 -19.175781 5.164062 -20.445312 6.71875 -21.28125 C 8.269531 -22.113281 10.066406 -22.53125 12.109375 -22.53125 C 14.140625 -22.53125 15.929688 -22.113281 17.484375 -21.28125 C 19.035156 -20.457031 20.25 -19.191406 21.125 -17.484375 C 22 -15.773438 22.4375 -13.648438 22.4375 -11.109375 C 22.4375 -8.566406 22 -6.4375 21.125 -4.71875 C 20.25 -3.007812 19.035156 -1.742188 17.484375 -0.921875 C 15.929688 -0.0976562 14.140625 0.3125 12.109375 0.3125 Z M 12.109375 -3.5 C 13.992188 -3.5 15.429688 -4.101562 16.421875 -5.3125 C 17.410156 -6.519531 17.90625 -8.453125 17.90625 -11.109375 C 17.90625 -13.753906 17.410156 -15.6875 16.421875 -16.90625 C 15.429688 -18.125 13.992188 -18.734375 12.109375 -18.734375 C 10.210938 -18.734375 8.765625 -18.125 7.765625 -16.90625 C 6.773438 -15.6875 6.28125 -13.753906 6.28125 -11.109375 C 6.28125 -8.453125 6.773438 -6.519531 7.765625 -5.3125 C 8.765625 -4.101562 10.210938 -3.5 12.109375 -3.5 Z M 12.109375 -3.5 "/></g></g></g></svg>